<svg width="19" height="15" viewBox="0 0 19 15" fill="none" xmlns="http://www.w3.org/2000/svg">
<path d="M18.4648 4.7501L10.3398 14.5493C10.2223 14.6912 10.0749 14.8052 9.90801 14.8831C9.74116 14.9611 9.55909 15.001 9.37493 15.0001C9.1913 15.0006 9.00984 14.9604 8.84357 14.8825C8.6773 14.8045 8.53033 14.6908 8.41321 14.5493L0.285089 4.7501C0.178111 4.6223 0.0983937 4.47397 0.0508342 4.31422C0.00327468 4.15448 -0.0111228 3.98671 0.00852639 3.8212C0.0280754 3.65528 0.0808297 3.495 0.163645 3.3499C0.24646 3.20481 0.35764 3.07787 0.490558 2.97667C3.04399 1.03424 6.16668 -0.0119644 9.37493 0.000103236C12.5832 -0.0119644 15.7059 1.03424 18.2593 2.97667C18.3922 3.07787 18.5034 3.20481 18.5862 3.3499C18.669 3.495 18.7218 3.65528 18.7413 3.8212C18.761 3.98671 18.7466 4.15448 18.699 4.31422C18.6515 4.47397 18.5718 4.6223 18.4648 4.7501Z" fill="#246498"/>
</svg>
