<svg width="14" height="18" viewBox="0 0 14 18" fill="none" xmlns="http://www.w3.org/2000/svg">
<path d="M10.4688 3.10529C9.50373 1.99079 8.41761 0.98721 7.23047 0.113106C7.12538 0.0394895 7.00018 0 6.87187 0C6.74357 0 6.61837 0.0394895 6.51328 0.113106C5.32832 0.987574 4.24431 1.99114 3.28125 3.10529C1.13359 5.5717 0 8.1717 0 10.6248C0 12.4482 0.724328 14.1969 2.01364 15.4862C3.30295 16.7755 5.05164 17.4998 6.875 17.4998C8.69836 17.4998 10.447 16.7755 11.7364 15.4862C13.0257 14.1969 13.75 12.4482 13.75 10.6248C13.75 8.1717 12.6164 5.5717 10.4688 3.10529ZM11.2383 11.3545C11.0762 12.2598 10.6407 13.0936 9.99035 13.7438C9.34 14.394 8.50605 14.8294 7.60078 14.9912C7.56745 14.9966 7.53376 14.9995 7.5 14.9998C7.34322 14.9998 7.19219 14.9408 7.07685 14.8346C6.96151 14.7285 6.89029 14.5828 6.87731 14.4266C6.86433 14.2703 6.91054 14.1149 7.00678 13.9912C7.10302 13.8674 7.24225 13.7843 7.39687 13.7584C8.69141 13.5405 9.78984 12.442 10.0094 11.1451C10.0371 10.9817 10.1287 10.8359 10.2639 10.7399C10.3992 10.644 10.567 10.6057 10.7305 10.6334C10.8939 10.6612 11.0397 10.7528 11.1357 10.888C11.2316 11.0232 11.27 11.191 11.2422 11.3545H11.2383Z" fill="#2B8AC1"/>
<path d="M11.2383 11.3545C11.0762 12.2598 10.6407 13.0936 9.99035 13.7438C9.34 14.394 8.50605 14.8294 7.60078 14.9912C7.56745 14.9966 7.53376 14.9995 7.5 14.9998C7.34322 14.9998 7.19219 14.9408 7.07685 14.8346C6.96151 14.7285 6.89029 14.5828 6.87731 14.4266C6.86433 14.2703 6.91054 14.1149 7.00678 13.9912C7.10302 13.8674 7.24225 13.7843 7.39687 13.7584C8.69141 13.5405 9.78984 12.442 10.0094 11.1451C10.0371 10.9817 10.1287 10.8359 10.2639 10.7399C10.3992 10.644 10.567 10.6057 10.7305 10.6334C10.8939 10.6612 11.0397 10.7528 11.1357 10.888C11.2316 11.0232 11.27 11.191 11.2422 11.3545H11.2383Z" fill="#2B8AC1"/>
</svg>
